HIERARCHY
ROOT Hips
{
	OFFSET -3.958830 18.904000 13.208200
	CHANNELS 6 Xposition Yposition Zposition Zrotation Yrotation Xrotation 
	JOINT LHipJoint
	{
		OFFSET 0.000000 0.000000 0.000000
		CHANNELS 3 Zrotation Yrotation Xrotation
		JOINT LeftUpLeg
		{
			OFFSET 1.800000 -1.400000 0.085000
			CHANNELS 3 Zrotation Yrotation Xrotation
			JOINT LeftLeg
			{
				OFFSET 2.215000 -6.000000 0.000000
				CHANNELS 3 Zrotation Yrotation Xrotation
				JOINT LeftFoot
				{
					OFFSET 2.500000 -6.900000 0.000000
					CHANNELS 3 Zrotation Yrotation Xrotation
					JOINT LeftToeBase
					{
						OFFSET 0.200000 -0.500000 1.950000
						CHANNELS 3 Zrotation Yrotation Xrotation
						End Site
						{
							OFFSET 0.000000 0.000000 0.000000
						}
					}
				}
			}
		}
	}
	JOINT RHipJoint
	{
		OFFSET 0.000000 0.000000 0.000000
		CHANNELS 3 Zrotation Yrotation Xrotation
		JOINT RightUpLeg
		{
			OFFSET -1.800000 -1.400000 0.085000
			CHANNELS 3 Zrotation Yrotation Xrotation
			JOINT RightLeg
			{
				OFFSET -2.215000 -6.000000 0.000000
				CHANNELS 3 Zrotation Yrotation Xrotation
				JOINT RightFoot
				{
					OFFSET -2.500000 -6.900000 0.000000
					CHANNELS 3 Zrotation Yrotation Xrotation
					JOINT RightToeBase
					{
						OFFSET -0.200000 -0.500000 1.950000
						CHANNELS 3 Zrotation Yrotation Xrotation
						End Site
						{
							OFFSET 0.000000 0.000000 0.000000
						}
					}
				}
			}
		}
	}
	JOINT LowerBack
	{
		OFFSET 0.000000 0.000000 0.000000
		CHANNELS 3 Zrotation Yrotation Xrotation
		JOINT Spine
		{
			OFFSET -0.087000 1.940000 -0.288900
			CHANNELS 3 Zrotation Yrotation Xrotation
			JOINT Spine1
			{
				OFFSET 0.000000 1.950000 0.060000
				CHANNELS 3 Zrotation Yrotation Xrotation
				JOINT Neck
				{
					OFFSET 0.000000 0.000000 0.000000
					CHANNELS 3 Zrotation Yrotation Xrotation
					JOINT Neck1
					{
						OFFSET 0.000000 1.600000 0.340000
						CHANNELS 3 Zrotation Yrotation Xrotation
						JOINT Head
						{
							OFFSET 0.000000 1.667000 -0.240000
							CHANNELS 3 Zrotation Yrotation Xrotation
							End Site
							{
								OFFSET 0.000000 0.000000 0.000000
							}
						}
					}
				}
				JOINT LeftShoulder
				{
					OFFSET 0.000000 0.000000 0.000000
					CHANNELS 3 Zrotation Yrotation Xrotation
					JOINT LeftArm
					{
						OFFSET 2.700000 1.550000 -0.730000
						CHANNELS 3 Zrotation Yrotation Xrotation
						JOINT LeftForeArm
						{
							OFFSET 5.450000 0.000000 0.000000
							CHANNELS 3 Zrotation Yrotation Xrotation
							JOINT LeftHand
							{
								OFFSET 3.450000 0.000000 0.000000
								CHANNELS 3 Zrotation Yrotation Xrotation
								JOINT LeftHandIndex1
								{
									OFFSET 0.750000 0.000000 0.000000
									CHANNELS 3 Zrotation Yrotation Xrotation
									End Site
									{
										OFFSET 0.000000 0.000000 0.000000
									}
								}
							}
						}
					}
				}
				JOINT RightShoulder
				{
					OFFSET 0.000000 0.000000 0.000000
					CHANNELS 3 Zrotation Yrotation Xrotation
					JOINT RightArm
					{
						OFFSET -2.700000 1.550000 -0.730000
						CHANNELS 3 Zrotation Yrotation Xrotation
						JOINT RightForeArm
						{
							OFFSET -5.450000 0.000000 0.000000
							CHANNELS 3 Zrotation Yrotation Xrotation
							JOINT RightHand
							{
								OFFSET -3.450000 0.000000 0.000000
								CHANNELS 3 Zrotation Yrotation Xrotation
								JOINT RightHandIndex1
								{
									OFFSET -0.750000 0.000000 0.000000
									CHANNELS 3 Zrotation Yrotation Xrotation
									End Site
									{
										OFFSET 0.000000 0.000000 0.000000
									}
								}
							}
						}
					}
				}
			}
		}
	}
}
MOTION
Frames: 14
Frame Time: 0.016667
-4.161200 16.873680 -1.547790 -12.149612 -68.213645 -10.159506 -15.309566 12.967978 4.261075 8.306561 -2.129108 -29.471191 -16.681299 16.412170 37.517682 0.495421 8.533172 1.211292 0.579930 0.367290 0.790480 18.021191 -10.759366 2.361492 -10.402249 6.992966 8.013676 4.785237 -15.824013 62.679183 -2.174816 -10.648650 0.680419 0.058400 -0.363660 0.382350 -3.571534 -2.194656 -7.873603 13.399439 5.962539 25.787232 0.968380 8.332349 17.260826 2.152669 -4.484741 -12.674968 -17.037947 19.834525 56.115216 -12.182470 19.434300 -18.941840 -2.887597 5.779699 3.112234 13.703857 30.706297 2.267841 6.818642 -2.540073 -0.586198 -3.419359 3.077437 0.734520 -0.224400 0.580210 -0.007030 -3.024277 -0.818432 8.118891 -0.244262 -34.562881 -1.422573 -24.946149 7.372561 0.319235 2.889855 -1.390733 0.070920 -0.090240 -0.216960 -0.264710 
-4.148220 16.872090 -1.569090 -12.445809 -68.767469 -9.348789 -15.318214 12.937671 4.294884 8.508312 -2.316671 -29.721983 -16.911695 16.120480 36.729112 0.435347 8.406139 1.264364 0.628010 0.417020 0.824150 18.020356 -10.794207 2.305502 -10.408263 6.650353 7.208753 3.882262 -15.330743 63.046735 -2.169837 -10.619982 0.671547 0.111880 -0.361750 0.380000 -3.633670 -2.154090 -7.835050 13.260192 5.817446 25.064782 1.541916 7.837010 17.382119 1.621409 -4.652809 -12.004783 -17.268580 19.698647 55.327033 -12.300820 19.192740 -19.042590 -3.164030 6.861088 2.769769 11.503153 28.921390 1.898506 8.417395 -2.552722 -0.495218 -3.461768 3.073307 0.729730 -0.218540 0.579610 0.021070 -1.808371 -1.963777 7.604812 1.806338 -32.676631 -1.918859 -25.382831 5.872190 0.355745 2.901618 -1.426815 0.056470 -0.079320 -0.254850 -0.267230 
-4.080710 16.898330 -1.627110 -13.010322 -69.264159 -8.570752 -15.298015 13.065921 4.279687 8.447554 -2.614125 -29.147351 -16.736314 15.011255 34.637327 0.302321 7.969848 1.438386 0.621170 0.385490 0.842250 18.022317 -10.856689 2.258852 -9.769129 5.879240 6.221442 1.913923 -14.090147 63.484899 -2.125342 -10.483123 0.703977 0.119590 -0.323480 0.381620 -3.602155 -2.344537 -7.784419 12.627168 4.823910 26.137620 1.326466 6.778322 16.641035 1.147891 -4.803051 -11.222287 -16.932424 19.814478 53.730516 -12.662080 19.677310 -19.005250 -3.547890 8.206935 2.292109 8.824542 27.824756 1.318927 8.829516 -3.697057 -0.498346 -3.507922 3.070496 0.729900 -0.191940 0.552570 0.024430 -0.573424 -3.435470 6.973808 7.081077 -27.735965 -3.484077 -24.825944 5.175735 0.213771 2.893564 -1.409248 0.018680 -0.056900 -0.250960 -0.281150 
-3.993960 16.975270 -1.685030 -14.387013 -69.799747 -6.212589 -15.270958 13.292229 4.141463 7.451955 -2.722944 -28.474589 -15.045747 12.754133 30.742990 0.096676 6.929912 1.831996 0.495540 0.253960 0.772360 18.014169 -10.957254 2.299566 -8.082298 5.354616 3.969253 -0.550604 -12.176809 64.025381 -2.015749 -10.277422 0.792889 0.052650 -0.240350 0.369960 -3.574957 -2.544910 -7.687687 12.441022 4.064683 26.294186 1.261228 5.840270 15.489213 1.187766 -4.486882 -10.797871 -15.721913 19.888084 53.328877 -14.722230 21.560400 -16.793240 -5.402722 7.685744 2.143273 7.348535 27.110780 0.941401 5.575032 -2.126032 -0.695871 -3.550103 2.999416 0.679140 -0.112130 0.485090 0.000430 1.315884 -3.562568 6.314815 14.031550 -24.379982 -5.870736 -26.820545 5.596004 -0.085829 2.873982 -1.400435 -0.026970 -0.039570 -0.191460 -0.279900 
-3.857930 17.071930 -1.772410 -16.538163 -70.742914 -3.123723 -15.245525 13.494597 3.999205 7.024375 -2.587454 -27.735125 -13.233418 10.519580 26.334218 -0.021128 5.754203 2.255788 0.489950 0.273210 0.756440 18.000973 -11.043158 2.388873 -6.254841 4.956568 1.482869 -2.545207 -10.422492 64.183035 -1.963617 -10.050245 0.867423 0.031400 -0.254980 0.377710 -3.631633 -2.682603 -7.615113 12.802892 2.940786 27.540087 0.609953 4.917593 13.787028 1.334753 -4.320969 -10.563929 -14.864492 20.172383 52.730405 -15.729390 23.304180 -15.407750 -6.637758 7.112671 2.202582 4.536705 23.965479 0.292634 2.856267 2.005357 -0.963031 -3.541218 2.984570 0.618870 -0.102320 0.492020 0.026880 2.395648 -3.416174 5.597616 20.925447 -19.183851 -7.516188 -25.990827 4.920616 -0.192058 2.915190 -1.421130 0.018150 -0.100240 -0.236900 -0.247920 
-3.691730 17.191850 -1.848870 -20.042200 -71.720636 0.859053 -15.198600 13.689417 3.774020 6.282664 -2.337473 -26.402667 -10.077108 7.997168 21.525155 -0.118898 4.423449 2.753090 0.497920 0.335980 0.721960 17.999317 -11.215153 2.501128 -4.696452 4.517558 -0.847681 -4.239865 -8.832160 63.399765 -1.915209 -9.702834 0.990034 0.017400 -0.253660 0.382610 -3.875773 -2.635661 -7.460388 14.576798 1.449662 28.953369 -0.525440 3.922627 12.628085 1.494999 -4.779792 -10.883962 -16.442133 21.333661 53.052916 -15.389660 23.783270 -14.583340 -7.831253 6.420180 2.628200 -0.942382 21.203597 -0.699077 5.357685 1.147375 -0.533250 -3.579413 2.979845 0.565540 -0.114670 0.533980 0.074650 3.452616 -2.829051 5.219336 26.978346 -15.475856 -8.014780 -18.586027 4.588946 -0.123728 2.935991 -1.264855 0.084890 -0.103680 -0.278990 -0.177600 
-3.538570 17.307460 -1.929120 -21.425429 -71.483107 3.169326 -15.163479 13.740833 3.683713 5.345637 -2.431786 -25.592682 -8.021074 6.197406 17.016136 -0.192798 3.482252 3.101144 0.532860 0.384340 0.723800 18.019583 -11.289416 2.536779 -4.152833 4.077271 -2.964898 -4.470032 -8.541859 62.213540 -1.871047 -9.461327 1.057016 0.010910 -0.272610 0.419800 -4.037811 -2.621971 -7.377577 15.660871 -0.211074 29.725336 -1.680804 2.521128 11.309321 1.528021 -5.202847 -10.663788 -17.804160 22.042952 52.820605 -15.850520 23.888330 -14.319760 -9.296053 5.749566 2.618687 -4.628413 18.279410 -1.244375 4.921621 0.525528 -0.490252 -3.566712 3.045784 0.535140 -0.119970 0.561600 0.099350 5.015133 -2.403731 4.402945 31.868255 -12.029507 -8.618513 -13.857688 5.582353 -0.349572 2.915606 -1.217840 0.150260 -0.143830 -0.304670 -0.145880 
-3.367460 17.399460 -2.010260 -23.820289 -71.708233 6.615623 -15.157217 13.754069 3.648216 4.794965 -2.561522 -26.186548 -5.910212 5.290512 15.743086 -0.211198 2.969814 3.270927 0.606230 0.506170 0.754220 18.031954 -11.292554 2.559182 -3.589844 3.938365 -5.283700 -4.634682 -8.110001 60.846466 -1.831349 -9.121402 1.148741 0.054910 -0.329580 0.404220 -4.111772 -2.666531 -7.330085 16.778748 -1.130689 30.021631 -1.321021 1.913089 10.667722 1.345361 -5.542428 -10.896811 -19.460800 22.999429 53.369154 -15.083310 23.631620 -15.316180 -10.227758 4.494460 3.063411 -10.901529 14.340623 -2.148713 6.987541 -1.225123 -0.319367 -3.529141 3.046800 0.534720 -0.173330 0.627140 0.137600 6.466385 -1.029662 3.984751 36.075709 -8.992625 -8.940819 -11.429088 5.222361 -0.406332 2.939112 -1.194882 0.196780 -0.141600 -0.373970 -0.114380 
-3.212190 17.471220 -2.096940 -23.907810 -72.373360 7.535588 -15.200667 13.900553 3.693499 4.663853 -2.851853 -26.904252 -4.888690 5.292844 17.528369 -0.211002 3.020674 3.230263 0.639400 0.535540 0.778540 17.980476 -11.209115 2.522346 -3.860208 3.766697 -6.955090 -4.667417 -7.860772 59.371579 -1.761041 -8.793401 1.221347 0.069190 -0.370860 0.389020 -3.872692 -3.071267 -7.352806 15.493615 -1.199717 30.558081 0.081546 1.755321 10.206691 1.185312 -5.408779 -11.534638 -19.937596 23.293523 54.408490 -13.383650 23.339250 -15.134940 -11.985316 1.582022 3.797131 -14.757120 11.386025 -2.545524 6.440456 -3.706062 -0.416381 -3.457280 3.068722 0.571950 -0.217710 0.652410 0.138300 8.831509 2.094353 4.327861 39.333261 -6.726580 -9.036620 -10.518578 4.769100 -0.391854 2.940267 -1.200440 0.198490 -0.152060 -0.397220 -0.125520 
-3.038190 17.507130 -2.176800 -21.941384 -73.623783 6.488816 -15.289412 13.968234 3.907480 4.485507 -3.734202 -28.742378 -5.235092 6.269848 22.924876 -0.113827 3.711359 2.958062 0.648660 0.551590 0.781420 17.902113 -11.068345 2.391731 -5.058783 3.684932 -8.381914 -4.522001 -7.630114 57.359802 -1.651060 -8.401978 1.320717 0.073760 -0.379860 0.386030 -3.558024 -3.522385 -7.421419 13.563101 -0.662897 31.475387 2.061644 2.047917 9.616776 0.867690 -5.623011 -11.748460 -21.292966 23.888899 54.496017 -13.144660 23.199160 -15.154460 -13.755765 -0.243707 4.017206 -18.162356 8.855027 -3.059458 6.322613 -7.047736 -0.589084 -3.423221 3.075104 0.576020 -0.230720 0.663840 0.139570 11.380194 4.661949 4.636595 40.520949 -4.473395 -8.437205 -9.043700 4.070559 -0.315805 2.944817 -1.192204 0.206300 -0.148270 -0.401330 -0.120580 
-2.873750 17.510030 -2.253290 -18.989512 -75.231138 4.434248 -15.427085 13.738051 4.429694 5.513553 -5.640138 -32.027811 -7.672084 8.950884 32.486504 0.109363 5.607968 2.245065 0.646240 0.518150 0.814370 17.837361 -10.792919 2.144777 -6.813231 3.559788 -9.809515 -3.960421 -7.848888 55.564624 -1.552190 -8.062528 1.386943 0.068020 -0.417750 0.374960 -3.223833 -3.873173 -7.663662 11.447273 0.027613 32.703175 3.168478 2.693488 8.681278 0.946056 -5.353442 -12.237885 -21.564383 23.885402 55.860667 -13.248980 23.011880 -16.164280 -15.404970 -3.233589 4.332133 -21.116119 3.728417 -2.655961 9.773842 -4.971528 -0.681881 -3.451199 3.006346 0.644340 -0.263600 0.677140 0.101570 13.086611 7.972917 5.354285 43.157565 -2.400723 -8.286451 -8.960363 4.099449 -0.278193 2.913934 -1.179385 0.175150 -0.142950 -0.379750 -0.167420 
-2.711890 17.493030 -2.318930 -15.354987 -77.378119 1.404774 -15.562216 13.356554 5.072109 7.077112 -7.855622 -34.993693 -11.389155 13.219939 42.696407 0.508429 8.259745 1.348370 0.612840 0.457520 0.819840 17.823574 -10.429864 1.813967 -8.438499 3.432777 -10.728915 -4.035339 -7.685356 54.150932 -1.447859 -7.773694 1.469756 0.071150 -0.388630 0.343050 -2.817386 -4.186732 -7.982278 9.011865 1.007363 33.930242 4.712853 3.383566 8.122562 0.719787 -5.279808 -12.540477 -21.747653 24.410658 56.774629 -12.990660 23.210990 -16.888290 -18.089984 -6.162653 4.428560 -22.068794 0.708172 -2.597032 11.038649 -6.346945 -0.994010 -3.480523 2.908090 0.702980 -0.253730 0.648780 0.066490 16.402251 11.507031 6.201883 42.197130 -0.022008 -6.779565 -8.336555 1.958709 0.049286 2.882475 -1.124698 0.098210 -0.076230 -0.326120 -0.217060 
-2.541900 17.439840 -2.376670 -16.080115 -80.168108 2.828865 -15.771622 12.792383 5.706705 10.328191 -9.202440 -37.985060 -16.977150 19.316086 51.037409 1.195076 11.018550 0.506851 0.651590 0.514710 0.822780 17.761337 -10.002222 1.604371 -8.886115 3.883559 -12.395765 -4.029542 -7.612140 54.480831 -1.453417 -7.759779 1.457927 0.091230 -0.392110 0.362310 -2.747306 -4.275444 -8.330723 8.545986 1.363001 35.741653 5.313150 4.077309 7.016714 0.414540 -5.768948 -12.978617 -23.412721 25.958202 55.334386 -12.384090 23.779580 -16.875480 -19.931487 -8.501122 4.557303 -21.103293 -1.831155 -2.145058 8.154605 -8.089533 -0.931769 -3.439468 2.959957 0.681460 -0.260660 0.668760 0.096320 19.022429 14.547721 6.941657 41.120014 2.246408 -5.537320 -7.848624 1.585621 0.082677 2.894487 -1.170919 0.133560 -0.092830 -0.355780 -0.189450 
-2.344350 17.368030 -2.434610 -16.136017 -82.877167 3.418997 -15.955071 12.365978 6.280005 13.285958 -10.200671 -40.330262 -22.983710 26.201432 57.178045 1.825787 13.487860 -0.151866 0.580720 0.390690 0.817220 17.704822 -9.481592 1.458274 -9.686565 4.508235 -14.552797 -3.279241 -8.051846 55.044582 -1.420539 -7.811089 1.417788 0.033520 -0.387000 0.355720 -2.433705 -4.646030 -8.732436 7.232864 2.303809 38.223389 6.074088 5.297885 5.415150 0.932804 -5.706479 -13.852021 -23.181090 25.948559 55.187067 -13.673550 24.607380 -16.574060 -22.410578 -11.932710 4.735897 -19.321382 -4.363470 -1.844065 5.841218 -8.727896 -0.825329 -3.459845 2.917267 0.721670 -0.258130 0.637350 0.046140 20.973671 18.489191 8.490358 40.622602 3.244709 -4.913202 -7.324865 2.258441 0.123277 2.863962 -1.153860 0.084760 -0.101930 -0.300040 -0.234800 
